<svg width="65" height="66" viewBox="0 0 65 66" fill="none" xmlns="http://www.w3.org/2000/svg">
<g clip-path="url(#clip0)">
<path d="M42.5317 56.311C42.136 56.4512 41.7008 56.4284 41.3219 56.2477C40.943 56.067 40.6514 55.7432 40.5112 55.3475L32.584 32.9683L10.2048 40.8956C9.86532 41.0154 9.49515 41.0158 9.15537 40.8969C8.81559 40.778 8.5265 40.5468 8.33579 40.2415C8.14508 39.9362 8.06415 39.575 8.10635 39.2175C8.14854 38.8599 8.31135 38.5275 8.5679 38.275L45.9275 1.53321C46.1591 1.30458 46.4555 1.15289 46.7764 1.09879C47.0973 1.0447 47.427 1.09082 47.7208 1.23089C48.0145 1.37096 48.2579 1.59816 48.4179 1.88156C48.5778 2.16495 48.6465 2.49076 48.6147 2.81461L43.582 54.9718C43.5533 55.2717 43.4396 55.5573 43.2543 55.7948C43.069 56.0324 42.8197 56.2121 42.5357 56.3129L42.5317 56.311ZM15.8735 35.5293L33.019 29.456C33.4146 29.3158 33.8498 29.3386 34.2287 29.5193C34.6076 29.6999 34.8992 30.0237 35.0394 30.4194L41.1127 47.5649L45.0405 6.8412L15.8695 35.5274L15.8735 35.5293Z" fill="white"/>
</g>
<defs>
<clipPath id="clip0">
<rect width="50.649" height="50.649" fill="white" transform="translate(0.258179 17.5518) rotate(-19.5054)"/>
</clipPath>
</defs>
</svg>
