<svg width="36" height="41" viewBox="0 0 36 41" fill="none" xmlns="http://www.w3.org/2000/svg">
<path d="M15.3742 0.902069C16.085 0.318746 16.9754 0 17.8941 0C18.8129 0 19.7033 0.318746 20.414 0.902069L34.282 12.2312C34.7539 12.6188 35.1338 13.1067 35.3943 13.6596C35.6548 14.2125 35.7894 14.8164 35.7882 15.4278V35.9778C35.7882 38.2421 33.9862 40.0772 31.7621 40.0772H26.3938C24.1697 40.0772 22.3677 38.2421 22.3677 35.9778V26.103C22.3677 25.349 21.7677 24.7373 21.0256 24.7373H14.7627C14.0216 24.7373 13.4206 25.349 13.4206 26.103V35.9788C13.4206 38.2432 11.6186 40.0783 9.39442 40.0783H4.02618C1.8031 40.0772 7.19642e-06 38.2421 7.19642e-06 35.9778V15.4278C-0.00113382 14.8164 0.133422 14.2125 0.393934 13.6596C0.654445 13.1067 1.03439 12.6188 1.50627 12.2312L15.3742 0.902069ZM18.7341 3.03353C18.4971 2.83921 18.2003 2.73304 17.8941 2.73304C17.5879 2.73304 17.2911 2.83921 17.0542 3.03353L3.18621 14.3616C3.02887 14.4909 2.90219 14.6537 2.81535 14.8381C2.72851 15.0225 2.68369 15.2239 2.68412 15.4278V35.9778C2.68412 36.7329 3.2841 37.3446 4.02618 37.3446H9.39442C10.1354 37.3446 10.7365 36.7329 10.7365 35.9778V26.103C10.7365 23.8398 12.5396 22.0047 14.7627 22.0047H21.0256C23.2487 22.0047 25.0518 23.8398 25.0518 26.103V35.9788C25.0518 36.734 25.6517 37.3457 26.3938 37.3457H31.7621C32.5031 37.3457 33.1041 36.734 33.1041 35.9788V15.4278C33.1041 15.0134 32.9199 14.621 32.602 14.3626L18.7341 3.03247V3.03353Z" fill="#F7B548"/>
</svg>
