<svg width="45" height="40" viewBox="0 0 45 40" fill="none" xmlns="http://www.w3.org/2000/svg">
<path d="M23.3392 4.97378C24.4048 3.77038 25.7004 2.79317 27.1493 2.09989C28.5983 1.4066 30.1712 1.01129 31.7751 0.937315C33.3791 0.863338 34.9816 1.11219 36.4879 1.66918C37.9943 2.22616 39.374 3.07999 40.5455 4.1802C41.717 5.28042 42.6565 6.60472 43.3086 8.07487C43.9607 9.54502 44.3122 11.1312 44.3422 12.7397C44.3722 14.3483 44.0801 15.9465 43.4833 17.44C42.8865 18.9336 41.9969 20.2921 40.8673 21.4354L23.2083 39.2989C23.0798 39.429 22.9267 39.5323 22.7581 39.6028C22.5895 39.6733 22.4085 39.7095 22.2258 39.7095C22.0431 39.7095 21.8622 39.6733 21.6935 39.6028C21.5249 39.5323 21.3719 39.429 21.2433 39.2989L3.58434 21.4354C1.44238 19.2687 0.201017 16.3681 0.111031 13.3197C0.0210444 10.2714 1.08914 7.30237 3.09955 5.01256C7.87005 -0.422939 16.3161 -0.441409 21.1124 4.97378L22.2258 6.22969L23.3392 4.97378ZM39.2765 6.84102C38.4103 5.85445 37.3447 5.06364 36.1503 4.521C34.9559 3.97837 33.66 3.6963 32.3486 3.69351C31.0372 3.69071 29.7401 3.96725 28.5434 4.50479C27.3468 5.04234 26.2778 5.8286 25.4074 6.81147L23.2581 9.23648C23.1284 9.38295 22.9691 9.50021 22.7909 9.58051C22.6126 9.6608 22.4194 9.70232 22.224 9.70232C22.0285 9.70232 21.8353 9.6608 21.6571 9.58051C21.4788 9.50021 21.3196 9.38295 21.1899 9.23648L19.0424 6.81147C18.2237 5.87811 17.2261 5.11918 16.1089 4.57975C14.9916 4.04033 13.7776 3.73143 12.5389 3.6714C11.3001 3.61138 10.062 3.80145 8.89805 4.23033C7.73409 4.65921 6.66804 5.31815 5.76326 6.16799C4.85848 7.01783 4.13343 8.04122 3.63118 9.17737C3.12894 10.3135 2.85976 11.5392 2.83963 12.7817C2.8195 14.0241 3.04883 15.2579 3.51401 16.4098C3.97918 17.5617 4.6707 18.6081 5.54747 19.4869L22.2258 36.3549L38.9023 19.4869C40.5518 17.8186 41.5078 15.5852 41.5773 13.2379C41.6467 10.8906 40.8244 8.60432 39.2765 6.84102Z" fill="#637989"/>
</svg>
