<svg width="46" height="41" viewBox="0 0 46 41" fill="none" xmlns="http://www.w3.org/2000/svg">
<path d="M44.9408 0.165616C45.1729 0.286069 45.3675 0.467998 45.5035 0.691596C45.6395 0.915195 45.7117 1.17189 45.7122 1.43375V30.0598C45.7123 30.3072 45.6483 30.5503 45.5267 30.7655C45.405 30.9808 45.2297 31.1607 45.018 31.2879L30.7329 39.8757C30.5177 40.0048 30.2725 40.0749 30.0217 40.0789C29.7709 40.0829 29.5235 40.0207 29.3044 39.8986L16.4193 32.7249C16.2102 32.5918 15.9678 32.5207 15.7201 32.5197C15.4724 32.5187 15.2295 32.5878 15.0193 32.7192L14.9793 32.7421L2.12276 39.8986C1.90531 40.0197 1.66005 40.0819 1.41125 40.0789C1.16246 40.0759 0.918765 40.0078 0.704298 39.8814C0.489832 39.755 0.31203 39.5747 0.188499 39.3583C0.0649677 39.1419 -9.31355e-06 38.8969 9.35352e-07 38.6476V11.4529C-0.000262011 11.2226 0.0549184 10.9957 0.160859 10.7914C0.266799 10.5871 0.420372 10.4114 0.608545 10.2792L14.8936 0.260082C15.1339 0.0913348 15.4202 0.000808716 15.7136 0.000808716C16.007 0.000808716 16.2933 0.0913348 16.5335 0.260082L29.9986 9.70668L43.4637 0.260082C43.6782 0.110128 43.9296 0.0220211 44.1905 0.00536371C44.4515 -0.0112937 44.712 0.0441373 44.9437 0.165616H44.9408ZM2.85701 12.1971V36.2144L13.5708 30.2516C13.8022 30.1142 14.0422 29.9997 14.2851 29.9109V4.18185L2.85701 12.1971ZM17.8506 30.2487L28.5816 36.2201L28.5701 12.1971L17.1421 4.18185V29.9167C17.3849 30.0025 17.6221 30.1142 17.8506 30.2487ZM31.4386 36.1142L42.8552 29.2497V4.18185L31.4271 12.1971L31.4386 36.1142Z" fill="#637989"/>
</svg>
