<svg width="39" height="41" viewBox="0 0 39 41" fill="none" xmlns="http://www.w3.org/2000/svg">
<path d="M0.828114 14.7214C1.6957 12.0373 3.12091 9.56773 5.00991 7.47539C5.16605 7.30251 5.36994 7.18001 5.59569 7.12347C5.82144 7.06692 6.05888 7.07886 6.27784 7.15779L10.7813 8.77167C11.1019 8.88638 11.4436 8.92986 11.7826 8.89911C12.1217 8.86836 12.45 8.7641 12.7448 8.59357C13.0396 8.42304 13.2939 8.19031 13.4901 7.91152C13.6862 7.63272 13.8195 7.31453 13.8807 6.97899L14.7377 2.25967C14.7792 2.02994 14.888 1.81778 15.0502 1.6502C15.2125 1.48262 15.4208 1.3672 15.6487 1.31863C18.4003 0.731394 21.2444 0.731394 23.9959 1.31863C24.2238 1.3672 24.4322 1.48262 24.5944 1.6502C24.7566 1.81778 24.8654 2.02994 24.9069 2.25967L25.7663 6.97899C25.8275 7.31453 25.9608 7.63272 26.1569 7.91152C26.353 8.19031 26.6073 8.42304 26.9022 8.59357C27.197 8.7641 27.5253 8.86836 27.8644 8.89911C28.2034 8.92986 28.5451 8.88638 28.8657 8.77167L33.3715 7.15779C33.5904 7.07965 33.8275 7.06835 34.0527 7.1253C34.278 7.18226 34.4814 7.30491 34.6371 7.47774C36.5249 9.56961 37.9493 12.0383 38.8165 14.7214C38.8881 14.943 38.8924 15.181 38.8289 15.405C38.7653 15.6291 38.6368 15.8292 38.4596 15.98L34.8085 19.0855C34.5491 19.3063 34.3408 19.581 34.1979 19.8906C34.055 20.2001 33.981 20.5371 33.981 20.8782C33.981 21.2192 34.055 21.5562 34.1979 21.8657C34.3408 22.1753 34.5491 22.45 34.8085 22.6708L38.4596 25.7763C38.6368 25.9271 38.7653 26.1272 38.8289 26.3513C38.8924 26.5753 38.8881 26.8133 38.8165 27.0349C37.9496 29.7188 36.5252 32.1884 34.6371 34.2809C34.4809 34.4538 34.277 34.5763 34.0513 34.6328C33.8255 34.6894 33.5881 34.6774 33.3691 34.5985L28.8657 32.9846C28.5451 32.8699 28.2034 32.8264 27.8644 32.8572C27.5253 32.8879 27.197 32.9922 26.9022 33.1627C26.6073 33.3333 26.353 33.566 26.1569 33.8448C25.9608 34.1236 25.8275 34.4418 25.7663 34.7773L24.9046 39.499C24.8628 39.728 24.7542 39.9394 24.5924 40.1065C24.4307 40.2736 24.2231 40.3888 23.9959 40.4377C21.2444 41.025 18.4002 41.025 15.6487 40.4377C15.4208 40.3891 15.2125 40.2737 15.0502 40.1061C14.888 39.9385 14.7792 39.7264 14.7377 39.4966L13.8807 34.7773C13.8195 34.4418 13.6862 34.1236 13.4901 33.8448C13.2939 33.566 13.0396 33.3333 12.7448 33.1627C12.45 32.9922 12.1217 32.8879 11.7826 32.8572C11.4436 32.8264 11.1019 32.8699 10.7813 32.9846L6.27549 34.5985C6.05662 34.6767 5.81953 34.688 5.59423 34.631C5.36894 34.574 5.16559 34.4514 5.00991 34.2786C3.12198 32.1867 1.69758 29.718 0.830462 27.0349C0.758886 26.8133 0.754594 26.5753 0.818132 26.3513C0.881669 26.1272 1.01017 25.9271 1.18736 25.7763L4.83851 22.6708C5.09788 22.45 5.30623 22.1753 5.44911 21.8657C5.592 21.5562 5.666 21.2192 5.666 20.8782C5.666 20.5371 5.592 20.2001 5.44911 19.8906C5.30623 19.581 5.09788 19.3063 4.83851 19.0855L1.18736 15.98C1.01017 15.8292 0.881669 15.6291 0.818132 15.405C0.754594 15.181 0.758886 14.943 0.830462 14.7214H0.828114ZM3.31935 14.7073L6.35767 17.2904C6.87722 17.7321 7.29461 18.2818 7.58088 18.9014C7.86714 19.5209 8.01542 20.1954 8.01542 20.8782C8.01542 21.5609 7.86714 22.2354 7.58088 22.8549C7.29461 23.4745 6.87722 24.0242 6.35767 24.4659L3.31935 27.049C4.00497 28.8888 4.99583 30.6014 6.24262 32.1118L9.99004 30.7708C10.6314 30.5414 11.3149 30.4545 11.9931 30.5162C12.6714 30.5778 13.3281 30.7865 13.9178 31.1279C14.5075 31.4692 15.016 31.9349 15.4082 32.4928C15.8003 33.0506 16.0667 33.6873 16.1888 34.3586L16.9049 38.2827C18.8365 38.6053 20.8081 38.6053 22.7397 38.2827L23.4559 34.3538C23.5782 33.6828 23.8448 33.0464 24.2371 32.4888C24.6294 31.9312 25.1379 31.4657 25.7276 31.1247C26.3173 30.7836 26.9739 30.5751 27.652 30.5136C28.3301 30.4521 29.0134 30.5391 29.6546 30.7685L33.4044 32.1118C34.6534 30.5991 35.6415 28.888 36.3276 27.049L33.2893 24.4659C32.769 24.0246 32.351 23.4751 32.0643 22.8555C31.7775 22.2359 31.629 21.5611 31.629 20.8782C31.629 20.1952 31.7775 19.5204 32.0643 18.9008C32.351 18.2812 32.769 17.7317 33.2893 17.2904L36.3276 14.7073C35.6415 12.8683 34.6535 11.1571 33.4044 9.64449L29.6569 10.9855C29.0157 11.2149 28.3324 11.3018 27.6543 11.2403C26.9762 11.1788 26.3196 10.9703 25.73 10.6293C25.1403 10.2882 24.6317 9.82275 24.2394 9.26516C23.8472 8.70757 23.5806 8.07118 23.4582 7.40011L22.7397 3.47362C20.8081 3.15093 18.8365 3.15093 16.9049 3.47362L16.1911 7.40011C16.069 8.07139 15.8027 8.70804 15.4105 9.2659C15.0184 9.82377 14.5098 10.2895 13.9201 10.6308C13.3304 10.9721 12.6737 11.1808 11.9955 11.2425C11.3173 11.3041 10.6338 11.2172 9.99239 10.9878L6.24262 9.64449C4.99355 11.1572 4.00552 12.8683 3.31935 14.7073ZM13.9535 20.8782C13.9535 19.3183 14.5719 17.8223 15.6728 16.7193C16.7736 15.6163 18.2667 14.9967 19.8235 14.9967C21.3803 14.9967 22.8734 15.6163 23.9742 16.7193C25.0751 17.8223 25.6935 19.3183 25.6935 20.8782C25.6935 22.438 25.0751 23.934 23.9742 25.037C22.8734 26.14 21.3803 26.7597 19.8235 26.7597C18.2667 26.7597 16.7736 26.14 15.6728 25.037C14.5719 23.934 13.9535 22.438 13.9535 20.8782ZM16.3015 20.8782C16.3015 21.8141 16.6725 22.7117 17.3331 23.3735C17.9936 24.0353 18.8894 24.4071 19.8235 24.4071C20.7576 24.4071 21.6534 24.0353 22.3139 23.3735C22.9744 22.7117 23.3455 21.8141 23.3455 20.8782C23.3455 19.9422 22.9744 19.0446 22.3139 18.3828C21.6534 17.721 20.7576 17.3493 19.8235 17.3493C18.8894 17.3493 17.9936 17.721 17.3331 18.3828C16.6725 19.0446 16.3015 19.9422 16.3015 20.8782Z" fill="#637989"/>
</svg>
